<svg width="165" height="165" viewBox="0 0 165 165" fill="none" xmlns="http://www.w3.org/2000/svg">
<g clip-path="url(#clip0_38_688)">
<path d="M137.257 148.196V162.156C137.257 163.727 135.984 165 134.412 165H30.5884C29.0168 165 27.7439 163.727 27.7439 162.156V148.196C27.7439 133.551 39.6161 121.686 54.2652 121.682C59.4421 121.679 64.0004 119.015 66.6245 114.976C69.2606 110.925 68.9889 107.402 68.9889 104.555L69.0423 104.423C56.2776 99.1396 47.2997 86.5634 47.2997 71.8894V70.7765C42.2312 70.7765 38.4107 66.7711 38.4107 62.0511V47.274C38.2969 42.129 38.5316 23.9847 51.6376 11.3517C66.8769 -3.33655 91.0266 -2.13476 108.52 5.72314C109.089 5.97914 109.071 6.79337 108.495 7.0316L103.933 8.90896C103.251 9.18985 103.397 10.1961 104.129 10.2743L106.344 10.5125C116.951 11.6468 126.803 17.4069 132.912 26.9928C133.075 27.2523 133.029 27.647 132.819 27.871C129.05 31.8568 126.945 37.1476 126.945 42.6481V62.0511C126.945 66.8689 123.038 70.7765 118.22 70.7765H117.701V71.8894C117.701 86.5634 108.723 99.1396 95.9582 104.423L96.0115 104.555C96.0115 107.32 95.7175 110.891 98.376 114.976C101 119.015 105.558 121.679 110.735 121.682C125.384 121.686 137.257 133.551 137.257 148.196Z" fill="#FFDFBA"/>
<path d="M137.257 148.196V162.156C137.257 163.727 135.983 165 134.412 165H30.5884C29.0175 165 27.7439 163.727 27.7439 162.156V148.196C27.7439 133.551 39.6178 121.688 54.2634 121.682C59.4418 121.68 64.0011 119.014 66.6245 114.976C75.7816 122.799 89.2136 122.804 98.376 114.976C100.999 119.014 105.559 121.68 110.737 121.682C125.383 121.688 137.257 133.551 137.257 148.196Z" fill="#FE4F60"/>
<path d="M132.91 26.9943C133.075 27.2535 133.029 27.6461 132.818 27.8694C129.05 31.8581 126.945 37.147 126.945 42.6479V62.0508C126.945 66.4555 123.627 70.7763 117.701 70.7763V48.8133C117.701 39.3874 110.06 31.7464 100.634 31.7464H64.3666C54.9407 31.7464 47.2997 39.3874 47.2997 48.8133V70.7763C42.2312 70.7763 38.4107 66.7709 38.4107 62.0508V47.2737C38.2969 42.1288 38.5316 23.9845 51.6376 11.3515C66.8758 -3.33711 91.028 -2.1346 108.519 5.724C109.088 5.97964 109.073 6.79423 108.496 7.03175L103.933 8.90982C103.251 9.19071 103.395 10.1959 104.128 10.2745L106.344 10.5123C116.952 11.6455 126.802 17.4056 132.91 26.9943Z" fill="#42434D"/>
<path d="M117.7 71.8896C117.7 91.3374 101.932 107.09 82.4995 107.09C64.191 107.09 47.2991 92.8567 47.2991 70.7767V48.8137C47.2991 39.3878 54.9401 31.7468 64.366 31.7468H100.633C110.059 31.7468 117.7 39.3878 117.7 48.8137V71.8896Z" fill="#FFEBD2"/>
<path d="M68.7451 64.4909C66.1284 64.4909 64 62.3621 64 59.7454C64 57.1288 66.1284 55 68.7451 55C71.3617 55 73.4905 57.1288 73.4905 59.7454C73.4905 62.3625 71.3617 64.4909 68.7451 64.4909Z" fill="#464649"/>
<path d="M95.9586 64.4909C93.342 64.4909 91.2131 62.3621 91.2131 59.7454C91.2131 57.1288 93.342 55 95.9586 55C98.5752 55 100.704 57.1288 100.704 59.7454C100.704 62.3625 98.5756 64.4909 95.9586 64.4909Z" fill="#464649"/>
<path d="M111.301 158.956H102.767C101.196 158.956 99.9226 157.682 99.9226 156.111C99.9226 154.54 101.196 153.267 102.767 153.267H111.301C112.871 153.267 114.145 154.54 114.145 156.111C114.145 157.682 112.872 158.956 111.301 158.956Z" fill="white"/>
<path d="M74.5293 94.6195C80.3168 98.2402 75.7531 107.12 69.4178 104.577C56.3922 99.3485 47.2991 86.655 47.2991 71.8893V48.8134C47.2991 45.2279 48.4049 41.9006 50.2936 39.1535C52.6097 35.7853 57.9659 37.2733 57.9659 41.7022V64.7781C57.9659 77.7596 64.7898 88.5259 74.5293 94.6195Z" fill="#FFF3E4"/>
<path d="M96.4131 110.393C87.6531 114.06 78.0263 114.345 68.5869 110.393C69.0691 108.393 68.9887 107.097 68.9887 104.555L69.042 104.423C77.6046 107.978 87.3786 107.985 95.958 104.423L96.0113 104.555C96.0113 107.098 95.9309 108.394 96.4131 110.393Z" fill="#FFD6A6"/>
<path d="M68.5914 130.271C67.2765 130.685 65.8664 130.913 64.3545 130.926C49.6713 131.055 37.6996 142.666 37.6996 157.35V160.022C37.6996 162.771 35.4709 165 32.7217 165H30.5884C29.0175 165 27.7439 163.727 27.7439 162.156V148.196C27.7439 133.55 39.6178 121.688 54.2634 121.682C59.4418 121.68 64.0011 119.014 66.6244 114.976C67.6819 115.879 68.814 116.691 70.0065 117.402C75.2521 120.528 74.4162 128.44 68.5914 130.271Z" fill="#FF6D7A"/>
<path d="M96.4089 130.271C97.7238 130.685 99.1339 130.913 100.646 130.926C115.329 131.055 127.301 142.666 127.301 157.35V160.022C127.301 162.771 129.529 165 132.279 165H134.412C135.983 165 137.256 163.727 137.256 162.156V148.196C137.256 133.55 125.382 121.688 110.737 121.682C105.559 121.68 100.999 119.014 98.3759 114.976C97.3184 115.879 96.1863 116.691 94.9938 117.402C89.7485 120.528 90.5841 128.44 96.4089 130.271Z" fill="#E84857"/>
<path d="M108.495 7.03159C104.315 8.75215 103.719 9.13154 102.27 8.90682C78.919 5.28721 58.4316 14.9489 51.474 37.6311V37.6347C48.8713 40.6285 47.2997 44.5397 47.2997 48.8135V62.1552C47.2997 67.911 38.4107 68.3117 38.4107 62.051V47.2739C38.2969 42.129 38.5316 23.9847 51.6376 11.3517C66.8769 -3.33655 91.0266 -2.13475 108.52 5.72313C109.089 5.97914 109.071 6.79337 108.495 7.03159Z" fill="#4D4E59"/>
</g>
<defs>
<clipPath id="clip0_38_688">
<rect width="165" height="165" fill="white"/>
</clipPath>
</defs>
</svg>
