<svg width="50" height="50" viewBox="0 0 50 50" fill="none" xmlns="http://www.w3.org/2000/svg">
<g clip-path="url(#clip0_497_429)">
<path d="M41.5929 44.908V49.1381C41.5929 49.6143 41.2072 50 40.7309 50H9.26919C8.79296 50 8.40723 49.6143 8.40723 49.1381V44.908C8.40723 40.4699 12.0049 36.8745 16.444 36.8734C18.0127 36.8723 19.394 36.0653 20.1892 34.8413C20.988 33.6136 20.9057 32.5461 20.9057 31.6833L20.9219 31.6434C17.0538 30.0423 14.3332 26.2313 14.3332 21.7847V21.4474C12.7973 21.4474 11.6396 20.2337 11.6396 18.8034V14.3254C11.6051 12.7664 11.6762 7.2681 15.6477 3.4399C20.2657 -1.01108 27.5838 -0.646896 32.8849 1.73428C33.0573 1.81186 33.0519 2.0586 32.8773 2.13079L31.495 2.69968C31.2881 2.7848 31.3323 3.08972 31.5542 3.11343L32.2255 3.18562C35.4395 3.52933 38.4252 5.27481 40.2762 8.17963C40.3258 8.25828 40.3118 8.37788 40.2482 8.44576C39.1061 9.65359 38.4683 11.2568 38.4683 12.9237V18.8034C38.4683 20.2633 37.2841 21.4474 35.8242 21.4474H35.6669V21.7847C35.6669 26.2313 32.9463 30.0423 29.0782 31.6434L29.0944 31.6833C29.0944 32.5212 29.0053 33.6033 29.8109 34.8413C30.6061 36.0653 31.9874 36.8723 33.5561 36.8734C37.9953 36.8745 41.5929 40.4699 41.5929 44.908Z" fill="#FFDFBA"/>
<path d="M41.5929 44.908V49.1381C41.5929 49.6141 41.2069 50 40.7309 50H9.26919C8.79317 50 8.40723 49.6141 8.40723 49.1381V44.908C8.40723 40.4699 12.0054 36.875 16.4434 36.8734C18.0126 36.8729 19.3943 36.0649 20.1892 34.8413C22.9641 37.2119 27.0344 37.2133 29.8109 34.8413C30.6057 36.0649 31.9875 36.8729 33.5567 36.8734C37.9947 36.875 41.5929 40.4699 41.5929 44.908Z" fill="#398433"/>
<path d="M40.2753 8.1801C40.3253 8.25865 40.3113 8.3776 40.2474 8.44527C39.1057 9.65396 38.4678 11.2567 38.4678 12.9236V18.8033C38.4678 20.138 37.4622 21.4474 35.6664 21.4474V14.7919C35.6664 11.9356 33.351 9.62012 30.4946 9.62012H19.5046C16.6482 9.62012 14.3328 11.9356 14.3328 14.7919V21.4474C12.7969 21.4474 11.6392 20.2336 11.6392 18.8033V14.3254C11.6047 12.7663 11.6758 7.26804 15.6473 3.43983C20.2649 -1.01125 27.5838 -0.64685 32.884 1.73454C33.0564 1.81201 33.0519 2.05886 32.877 2.13083L31.4945 2.69995C31.2879 2.78506 31.3314 3.08966 31.5536 3.11347L32.225 3.18555C35.4396 3.52894 38.4245 5.27442 40.2753 8.1801Z" fill="#FFF970"/>
<path d="M35.6666 21.7846C35.6666 27.6779 30.8883 32.4514 24.9998 32.4514C19.4518 32.4514 14.333 28.1383 14.333 21.4474V14.7919C14.333 11.9356 16.6485 9.62012 19.5048 9.62012H30.4948C33.3512 9.62012 35.6666 11.9356 35.6666 14.7919V21.7846Z" fill="#F5C88E"/>
<path d="M22.5846 28.6726C24.3384 29.7697 22.9555 32.4605 21.0356 31.6899C17.0885 30.1056 14.333 26.2591 14.333 21.7846V14.7919C14.333 13.7054 14.6681 12.6971 15.2404 11.8647C15.9423 10.844 17.5654 11.2949 17.5654 12.637V19.6297C17.5654 23.5635 19.6332 26.826 22.5846 28.6726Z" fill="#FCD098"/>
<path d="M29.2164 33.4526C26.5618 34.5638 23.6446 34.65 20.7842 33.4526C20.9303 32.8464 20.9059 32.4538 20.9059 31.6834L20.9221 31.6436C23.5168 32.7206 26.4786 32.7227 29.0784 31.6436L29.0946 31.6834C29.0946 32.4541 29.0703 32.8466 29.2164 33.4526Z" fill="#FFD6A6"/>
<path d="M20.7853 39.4762C20.3868 39.6015 19.9595 39.6706 19.5014 39.6746C15.0519 39.7138 11.4241 43.232 11.4241 47.6817V48.4916C11.4241 49.3247 10.7488 50 9.91567 50H9.26919C8.79317 50 8.40723 49.6141 8.40723 49.1381V44.908C8.40723 40.4698 12.0054 36.875 16.4434 36.8734C18.0126 36.8729 19.3943 36.0649 20.1892 34.8413C20.5096 35.115 20.8527 35.361 21.2141 35.5763C22.8037 36.5235 22.5503 38.9212 20.7853 39.4762Z" fill="#48B23F"/>
<path d="M29.2148 39.4762C29.6133 39.6015 30.0406 39.6706 30.4987 39.6746C34.9482 39.7138 38.576 43.232 38.576 47.6817V48.4916C38.576 49.3247 39.2513 50 40.0844 50H40.7309C41.2069 50 41.5929 49.6141 41.5929 49.1381V44.908C41.5929 40.4698 37.9947 36.875 33.5566 36.8734C31.9874 36.8729 30.6058 36.0649 29.8109 34.8413C29.4904 35.115 29.1474 35.361 28.786 35.5763C27.1965 36.5235 27.4497 38.9212 29.2148 39.4762Z" fill="#48B33F"/>
<path d="M32.8769 2.13079C31.61 2.65217 31.4294 2.76713 30.9905 2.69904C23.9144 1.60219 17.7061 4.52996 15.5977 11.4034V11.4045C14.809 12.3117 14.3328 13.4969 14.3328 14.792V18.8349C14.3328 20.5791 11.6392 20.7005 11.6392 18.8033V14.3254C11.6047 12.7664 11.6758 7.2681 15.6473 3.4399C20.2653 -1.01108 27.5833 -0.646896 32.8844 1.73428C33.0568 1.81186 33.0514 2.0586 32.8769 2.13079Z" fill="#EAE237"/>
<path d="M22.1883 20.3769C21.533 20.3769 21 19.8437 21 19.1884C21 18.5331 21.533 18 22.1883 18C22.8436 18 23.3768 18.5331 23.3768 19.1884C23.3768 19.8438 22.8436 20.3769 22.1883 20.3769Z" fill="#464649"/>
<path d="M29.0039 20.3769C28.3486 20.3769 27.8154 19.8437 27.8154 19.1884C27.8154 18.5331 28.3486 18 29.0039 18C29.6592 18 30.1922 18.5331 30.1922 19.1884C30.1923 19.8438 29.6593 20.3769 29.0039 20.3769Z" fill="#464649"/>
</g>
<defs>
<clipPath id="clip0_497_429">
<rect width="50" height="50" fill="white"/>
</clipPath>
</defs>
</svg>
