<svg width="50" height="50" viewBox="0 0 50 50" fill="none" xmlns="http://www.w3.org/2000/svg">
<g clip-path="url(#clip0_497_339)">
<path d="M36.291 22.1772V22.7432C36.291 23.4366 36.4028 24.1255 36.6221 24.7833L37.9039 28.6288H40.3232V19.7578H38.7103C37.3742 19.7579 36.291 20.841 36.291 22.1772Z" fill="#5A4146"/>
<path d="M47.3325 23.8526L45.9679 28.629L39.5162 22.9839C38.6254 22.9839 37.9033 22.2617 37.9033 21.371C37.9033 20.0349 38.9865 18.9517 40.3227 18.9517H45.9678C46.8586 18.9517 47.5807 19.6738 47.5807 20.5646V22.0804C47.5808 22.6797 47.4972 23.2762 47.3325 23.8526Z" fill="#694B4B"/>
<path d="M44.3543 31.0488H39.5156V34.6181H44.3543V31.0488Z" fill="#E6AF78"/>
<path d="M39.5156 32.5297C40.2636 32.8336 41.0792 33.0047 41.935 33.0047C42.7907 33.0047 43.6063 32.8336 44.3543 32.5297V31.0483H39.5156V32.5297Z" fill="#D29B6E"/>
<path d="M48.2453 34.1165L44.3547 33.005L41.9355 34.6104L39.5162 33.0049L35.6258 34.1165C34.5871 34.4133 33.8711 35.3626 33.8711 36.4428V42.3389C33.8711 42.7843 34.2321 43.1453 34.6775 43.1453H49.1937C49.6391 43.1453 50.0001 42.7843 50.0001 42.3389V36.4428C50.0001 35.3625 49.284 34.4133 48.2453 34.1165Z" fill="#D5DCED"/>
<path d="M42.7418 43.1451H41.1289L41.5321 34.6177H42.3386L42.7418 43.1451Z" fill="#AFB9D2"/>
<path d="M41.9354 31.8548C39.263 31.8548 37.0967 29.6883 37.0967 27.0161V26.0713C37.0967 25.6435 37.2666 25.2333 37.569 24.9307L39.0314 23.4683C39.3411 23.1587 39.7646 22.9806 40.2022 22.9944C42.7802 23.0757 45.062 23.628 46.3094 24.8463C46.6147 25.1445 46.7741 25.5617 46.7741 25.9884V27.0161C46.7741 29.6884 44.6077 31.8548 41.9354 31.8548Z" fill="#F0C087"/>
<path d="M39.7757 27.3769C39.3479 27.3769 39 27.068 39 26.6884C39 26.3088 39.3479 26 39.7757 26C40.2034 26 40.5514 26.3088 40.5514 26.6884C40.5514 27.0681 40.2034 27.3769 39.7757 27.3769Z" fill="#464649"/>
<path d="M44.224 27.3769C43.7962 27.3769 43.4482 27.068 43.4482 26.6884C43.4482 26.3088 43.7962 26 44.224 26C44.6517 26 44.9997 26.3088 44.9997 26.6884C44.9997 27.0681 44.6518 27.3769 44.224 27.3769Z" fill="#464649"/>
<path d="M39.516 26.2714C39.516 25.3411 40.2973 24.6016 41.2257 24.6608C42.8537 24.7647 45.2695 25.0368 46.7517 25.7497C46.7033 25.4094 46.5571 25.0882 46.3094 24.8463C45.062 23.628 42.7802 23.0757 40.2022 22.9944L40.2021 22.9945V22.9944C39.7645 22.9806 39.341 23.1588 39.0314 23.4683L37.5691 24.9306C37.2666 25.2331 37.0967 25.6433 37.0967 26.0712V27.016C37.0967 29.2226 38.5753 31.0805 40.5947 31.6624C39.9226 30.8331 39.5161 29.7803 39.5161 28.6289L39.516 26.2714Z" fill="#E6AF78"/>
<path d="M46.7744 38.8457C46.7744 38.204 47.0293 37.5887 47.483 37.135L49.5589 35.0591C49.8363 35.4557 50.0002 35.9331 50.0002 36.4428V42.3389C50.0002 42.7843 49.6392 43.1453 49.1938 43.1453H46.7744V38.8457Z" fill="#C7CFE2"/>
<path d="M42.3386 36.2306H41.5321C41.3095 36.2306 41.1289 36.05 41.1289 35.8273V34.6177H42.7418V35.8273C42.7418 36.05 42.5613 36.2306 42.3386 36.2306Z" fill="#959CB5"/>
<path d="M41.9353 34.6102L40.5684 35.6542C40.3329 35.8341 39.9925 35.7621 39.8502 35.5021L38.624 33.2628L39.1176 32.51C39.2271 32.343 39.4604 32.3146 39.6067 32.4503L41.9353 34.6102Z" fill="#C7CFE2"/>
<path d="M41.9355 34.6101L43.3024 35.6543C43.5379 35.8341 43.8783 35.7621 44.0206 35.5021L45.2468 33.2628L44.7532 32.51C44.6437 32.343 44.4104 32.3146 44.2641 32.4503L41.9355 34.6101Z" fill="#C7CFE2"/>
<path d="M14.4359 31.5183C13.7468 29.6923 13.2002 26.5533 13.0821 24.919C12.8575 21.8091 10.5138 19.2739 7.34568 19.2739C4.17752 19.2739 1.83386 21.8092 1.60925 24.919C1.49119 26.5532 0.944605 29.6923 0.255445 31.5183C0.103589 31.9208 0.278882 32.3646 0.675269 32.5443C1.41375 32.879 2.98826 33.5347 4.88718 33.79H9.80408C11.6941 33.5341 13.2797 32.878 14.016 32.5443C14.4125 32.3646 14.5878 31.9208 14.4359 31.5183Z" fill="#5A4146"/>
<path d="M14.0154 32.5443C14.4117 32.3646 14.5871 31.9208 14.4352 31.5182C13.7461 29.6923 13.1994 26.5533 13.0814 24.919C12.8569 21.8091 10.5132 19.2739 7.34512 19.2739C7.33711 19.2739 7.3292 19.2739 7.32119 19.274C4.89023 19.2839 4.03115 22.5992 6.12383 23.8362C6.24951 23.9105 6.33008 23.9463 6.33008 23.9463L8.16299 33.79H9.80351C11.6936 33.5339 13.2791 32.8779 14.0154 32.5443Z" fill="#694B4B"/>
<path d="M13.1787 35.4092L10.5689 34.1044C10.0225 33.8312 9.67725 33.2726 9.67734 32.6616L9.67754 30.2422H4.83867V32.6617C4.83867 33.2727 4.49355 33.8311 3.94707 34.1043L1.3373 35.4092C0.517676 35.8189 0 36.6566 0 37.5729V42.3388C0 42.7841 0.361035 43.1452 0.806445 43.1452H13.7097C14.1551 43.1452 14.5161 42.7841 14.5161 42.3388V37.573C14.5161 36.6566 13.9983 35.8189 13.1787 35.4092Z" fill="#E6AF78"/>
<path d="M7.25791 33.4675C8.12627 33.4675 8.95801 33.2885 9.7205 32.9698C9.70049 32.8682 9.67715 32.7671 9.67715 32.6611L9.67734 30.2417H4.83848V32.6612C4.83848 32.7678 4.81514 32.8693 4.79492 32.9714C5.55791 33.2884 6.38926 33.4675 7.25791 33.4675Z" fill="#D29B6E"/>
<path d="M13.1787 35.4092L11.3195 34.4796C10.4574 35.8108 8.96221 36.6938 7.25811 36.6938C5.554 36.6938 4.05869 35.8108 3.19658 34.4795L1.3374 35.4092C0.517773 35.8189 0 36.6566 0 37.5729V42.3388C0 42.7842 0.361035 43.1452 0.806445 43.1452H13.7097C14.1551 43.1452 14.5161 42.7842 14.5161 42.3388V37.573C14.5161 36.6566 13.9983 35.8189 13.1787 35.4092Z" fill="#D5DCED"/>
<path d="M7.25784 31.8546C4.79769 31.8546 2.76644 30.0187 2.45931 27.6422C2.41478 27.2979 2.5803 26.9603 2.89027 26.8039C3.26155 26.6166 3.80111 26.3008 4.31771 25.8398C4.893 25.3266 5.2305 24.7852 5.42112 24.3879C5.58528 24.0457 5.96263 23.8521 6.3304 23.946C9.16985 24.6702 11.103 26.1475 11.8043 26.7506C11.9926 26.9125 12.1011 27.1513 12.0818 27.3989C11.8864 29.8921 9.8013 31.8546 7.25784 31.8546Z" fill="#F0C087"/>
<path d="M5.6464 28.3769C5.28995 28.3769 5 28.068 5 27.6884C5 27.3088 5.28995 27 5.6464 27C6.00285 27 6.29285 27.3088 6.29285 27.6884C6.29285 28.0681 6.00285 28.3769 5.6464 28.3769Z" fill="#464649"/>
<path d="M9.35349 28.3769C8.99703 28.3769 8.70703 28.068 8.70703 27.6884C8.70703 27.3088 8.99703 27 9.35349 27C9.70994 27 9.99989 27.3088 9.99989 27.6884C9.99994 28.0681 9.70999 28.3769 9.35349 28.3769Z" fill="#464649"/>
<path d="M11.8042 26.7506C11.1029 26.1475 9.16973 24.6702 6.33028 23.946C5.96251 23.8521 5.58516 24.0457 5.421 24.3879C5.27667 24.6889 5.03809 25.0723 4.68409 25.4637C4.68399 25.4646 4.6837 25.4654 4.6836 25.4664C4.57374 25.5909 4.45674 25.7157 4.31768 25.8399C3.80108 26.301 3.26153 26.6167 2.89024 26.804C2.58028 26.9603 2.41485 27.298 2.45928 27.6424C2.73516 29.7767 4.40528 31.4755 6.52422 31.7995C5.5587 31.1427 4.83848 30.2394 4.83848 28.629V27.479C5.02169 27.3437 5.20616 27.2089 5.39151 27.0435C5.83975 26.6435 6.23106 26.1809 6.54483 25.6828C8.717 26.3606 10.1897 27.4896 10.748 27.9697C10.9008 28.1037 11.2801 28.4533 11.7238 28.8696C11.9148 28.4102 12.041 27.9172 12.0815 27.3991C12.101 27.1514 11.9925 26.9126 11.8042 26.7506Z" fill="#E6AF78"/>
<path d="M0.491602 36.1191C0.180957 36.5314 0 37.0372 0 37.5729V42.3387C0 42.7841 0.361035 43.1451 0.806445 43.1451H3.22578V39.0816C3.22578 38.5917 3.00303 38.1282 2.62041 37.8222L0.491602 36.1191Z" fill="#C7CFE2"/>
<path d="M36.5859 34.3082L29.8384 31.8545L24.9997 33.4675L20.161 31.8546L13.4135 34.3083C12.1387 34.7719 11.29 35.9834 11.29 37.3398V42.3385C11.29 42.7838 11.6511 43.1449 12.0965 43.1449H37.9029C38.3483 43.1449 38.7094 42.7838 38.7094 42.3385V37.3398C38.7094 35.9833 37.8608 34.7718 36.5859 34.3082Z" fill="#FF507D"/>
<path d="M24.1548 35.0806L23.3867 43.1449H26.6125L25.8444 35.0806H24.1548Z" fill="#707487"/>
<path d="M25.8468 36.1887H24.1534C23.8416 36.1887 23.5889 35.9359 23.5889 35.6241V33.4678H26.4112V35.6241C26.4113 35.9358 26.1586 36.1887 25.8468 36.1887Z" fill="#5B5D6E"/>
<path d="M37.8417 35.1421C38.3862 35.7266 38.7098 36.505 38.7098 37.3399V42.3386C38.7098 42.784 38.3487 43.145 37.9033 43.145H33.8711V40.4489C33.8711 39.5934 34.2109 38.7728 34.8159 38.168L37.8417 35.1421Z" fill="#D23C69"/>
<path d="M33.8709 15.2237V8.46787C33.8709 7.57705 33.1487 6.85498 32.258 6.85498H22.5806C19.0175 6.85498 16.1289 9.74346 16.1289 13.3066V15.2237C16.1289 16.0905 16.2687 16.9517 16.5428 17.7739L16.8112 18.5793C16.8935 18.826 16.9354 19.0843 16.9354 19.3443V19.7582H33.0644V19.3443C33.0644 19.0843 33.1063 18.826 33.1885 18.5793L33.4569 17.7739C33.7312 16.9516 33.8709 16.0904 33.8709 15.2237Z" fill="#5A4146"/>
<path d="M20.1611 10.1312C20.1611 11.9405 21.6279 13.4073 23.4373 13.4073H23.8909L24.1099 19.7581H33.0643V19.3442C33.0643 19.0842 33.1062 18.8259 33.1884 18.5792L33.4568 17.7738C33.731 16.9516 33.8707 16.0904 33.8707 15.2236V8.46787C33.8707 7.57705 33.1485 6.85498 32.2578 6.85498H23.4373C21.6279 6.85498 20.1611 8.32178 20.1611 10.1312Z" fill="#694B4B"/>
<path d="M29.8389 26.21H20.1611V33.4678H29.8389V26.21Z" fill="#E6AF78"/>
<path d="M20.1612 28.9364C21.5858 29.7617 23.2352 30.2417 24.9999 30.2417C26.7647 30.2417 28.4141 29.7617 29.8386 28.9364V26.2095H20.1611L20.1612 28.9364Z" fill="#D29B6E"/>
<path d="M25.0004 33.4679L22.4283 36.0399C22.0826 36.3856 21.5112 36.3467 21.2157 35.9572L18.5488 32.4432L19.2464 30.9731C19.4522 30.5394 19.9892 30.3804 20.3979 30.6323L25.0004 33.4679Z" fill="#D23C69"/>
<path d="M25 33.4679L27.5721 36.0399C27.9178 36.3856 28.4892 36.3467 28.7847 35.9572L31.4516 32.4432L30.754 30.9731C30.5481 30.5394 30.0112 30.3804 29.6024 30.6323L25 33.4679Z" fill="#D23C69"/>
<path d="M25.0001 28.629C20.5462 28.629 16.9355 25.0184 16.9355 20.5645V19.6197C16.9355 19.1919 17.1055 18.7817 17.4079 18.4791L18.076 17.8111C18.3784 17.5086 18.5483 17.0984 18.5483 16.6705V14.7373C18.5483 14.3639 18.7991 14.0395 19.1625 13.9536C21.0698 13.5032 27.0051 12.4361 31.0442 15.4068C31.3065 15.5996 31.4516 15.9165 31.4516 16.2421V16.6705C31.4516 17.0983 31.6215 17.5085 31.9239 17.8111L32.592 18.4791C32.8944 18.7816 33.0644 19.1918 33.0644 19.6197V20.5645C33.0646 25.0184 29.454 28.629 25.0001 28.629Z" fill="#F0C087"/>
<path d="M31.0443 15.4069C28.2035 13.3175 24.43 13.2271 21.7743 13.5131C20.6541 13.6337 19.7285 13.8202 19.1627 13.9538C18.7993 14.0396 18.5485 14.364 18.5485 14.7374V16.6706C18.5485 17.0984 18.3786 17.5086 18.0761 17.8112L17.408 18.4792C17.1055 18.7818 16.9355 19.192 16.9355 19.6199V20.5646C16.9355 24.688 20.0322 28.0826 24.0256 28.5646C22.6341 27.1155 21.7742 25.1517 21.7742 22.9839V17.0893C21.7742 16.272 22.3819 15.589 23.1928 15.4873C25.1281 15.2447 28.6728 15.0988 31.4516 16.6707V16.2422C31.4518 15.9166 31.3064 15.5997 31.0443 15.4069Z" fill="#E6AF78"/>
<path d="M12.1581 35.1421C11.6136 35.7266 11.29 36.505 11.29 37.3399V42.3386C11.29 42.784 11.6511 43.145 12.0965 43.145H16.1287V40.4489C16.1287 39.5934 15.7889 38.7728 15.1839 38.168L12.1581 35.1421Z" fill="#D23C69"/>
<path d="M22.1883 21.3769C21.533 21.3769 21 20.8437 21 20.1884C21 19.5331 21.533 19 22.1883 19C22.8436 19 23.3768 19.5331 23.3768 20.1884C23.3768 20.8438 22.8436 21.3769 22.1883 21.3769Z" fill="#464649"/>
<path d="M29.0039 21.3769C28.3486 21.3769 27.8154 20.8437 27.8154 20.1884C27.8154 19.5331 28.3486 19 29.0039 19C29.6592 19 30.1922 19.5331 30.1922 20.1884C30.1923 20.8438 29.6593 21.3769 29.0039 21.3769Z" fill="#464649"/>
</g>
<defs>
<clipPath id="clip0_497_339">
<rect width="50" height="50" fill="white"/>
</clipPath>
</defs>
</svg>
