<svg width="50" height="50" viewBox="0 0 50 50" fill="none" xmlns="http://www.w3.org/2000/svg">
<g clip-path="url(#clip0_497_384)">
<path d="M12.8665 36.3418C5.77191 36.3418 0 42.1137 0 49.2083V49.2372C0 49.642 0.32809 49.9702 0.732997 49.9702H25C25.4049 49.9702 25.733 49.642 25.733 49.2372V49.2083C25.733 42.1137 19.9611 36.3418 12.8665 36.3418Z" fill="#8CC7EC"/>
<path d="M12.8669 36.3418C12.2893 36.3418 11.7208 36.3807 11.1631 36.4548C17.4552 37.291 22.3259 42.6912 22.3259 49.2083V49.2372C22.3259 49.642 21.9978 49.9702 21.5929 49.9702H25.0004C25.4053 49.9702 25.7334 49.642 25.7334 49.2372V49.2083C25.7334 42.1137 19.9615 36.3418 12.8669 36.3418Z" fill="#66BAEA"/>
<path d="M16.1047 36.7533C13.9989 36.2072 11.7337 36.2072 9.62817 36.7533C9.27154 36.8457 9.03894 37.1887 9.08487 37.5543C9.32383 39.4544 10.9496 40.8873 12.8664 40.8873C14.7831 40.8873 16.4089 39.4544 16.6479 37.5543C16.6941 37.1887 16.4615 36.8457 16.1047 36.7533Z" fill="#E09C77"/>
<path d="M23.8762 19.1285C22.8137 17.3724 21.0484 16.2435 18.9054 15.9499C17.3813 15.741 16.1348 16.1478 15.436 16.4669C14.4166 15.2533 13.2564 14.6021 10.8503 14.6021C8.08682 14.6021 4.16968 16.0358 2.0995 19.1836C-0.307661 22.8438 0.726256 27.1794 2.0175 30.172C2.13713 30.449 2.69098 30.6148 2.69098 30.6148L22.7944 30.5367C22.7944 30.5367 23.5952 30.477 23.7327 30.0962C25.8268 24.2971 24.9666 20.931 23.8762 19.1285Z" fill="#6E563D"/>
<path d="M23.8759 19.1284C22.8134 17.3722 21.0481 16.2433 18.9051 15.9497C17.932 15.8164 17.073 15.9343 16.3965 16.1198C18.1488 16.5681 19.5881 17.6144 20.504 19.1285C21.5944 20.9309 22.4547 24.297 20.3604 30.0961C20.223 30.4769 19.4221 30.5366 19.4221 30.5366H22.7941C22.7941 30.5366 23.5949 30.4769 23.7324 30.0961C25.8266 24.2969 24.9663 20.9308 23.8759 19.1284Z" fill="#604B35"/>
<path d="M21.6854 28.5601C21.4079 28.5601 21.1325 28.6034 20.8672 28.6887C20.5811 28.7806 20.3803 29.0378 20.3602 29.3375C20.2931 30.3393 20.032 31.3 19.5838 32.1931C19.4489 32.4618 19.4918 32.7855 19.6918 33.0098C20.1994 33.579 20.9261 33.9055 21.6853 33.9055C23.159 33.9055 24.358 32.7065 24.358 31.2328C24.358 29.7591 23.1591 28.5601 21.6854 28.5601Z" fill="#E09C77"/>
<path d="M6.14838 32.1932C5.70008 31.2998 5.43884 30.3391 5.37199 29.3376C5.35195 29.0379 5.15101 28.7806 4.86495 28.6887C4.5996 28.6033 4.32429 28.5601 4.04673 28.5601C2.57301 28.5601 1.37402 29.7591 1.37402 31.2328C1.37402 32.7065 2.57301 33.9055 4.04673 33.9055C4.80592 33.9055 5.53256 33.5791 6.04019 33.0099C6.24035 32.7856 6.28325 32.4619 6.14838 32.1932Z" fill="#F7B081"/>
<path d="M48.6598 22.5354C47.7612 20.1914 46.1943 18.2005 44.1286 16.778C42.0615 15.3544 39.6427 14.6021 37.1335 14.6021C34.6243 14.6021 32.2054 15.3545 30.1383 16.778C28.0725 18.2005 26.5057 20.1914 25.6071 22.5354C24.2583 26.054 24.2537 33.8471 26.1711 37.9261C26.8787 39.4314 27.8033 40.3859 28.9191 40.7629C29.3022 40.8927 44.8072 40.8017 45.113 40.8017C45.1908 40.8017 45.2699 40.7892 45.3477 40.7629C46.4635 40.3859 47.3881 39.4314 48.0957 37.9261C50.0131 33.8471 50.0085 26.054 48.6598 22.5354Z" fill="#A58260"/>
<path d="M48.6601 22.5354C47.7616 20.1914 46.1946 18.2005 44.129 16.778C42.0619 15.3544 39.643 14.6021 37.1338 14.6021C36.56 14.6021 35.9913 14.6433 35.43 14.7211C37.323 14.9832 39.1271 15.68 40.7214 16.778C42.7872 18.2005 44.354 20.1914 45.2526 22.5354C46.6014 26.054 46.606 33.8471 44.6886 37.9261C43.981 39.4314 43.0564 40.3859 41.9406 40.7629C41.8628 40.7892 41.7837 40.8017 41.7059 40.8017C41.551 40.8017 37.4955 40.8251 33.4814 40.8313C38.2022 40.8407 44.9133 40.8017 45.1134 40.8017C45.1912 40.8017 45.2704 40.7892 45.3482 40.7629C46.464 40.3859 47.3885 39.4314 48.0961 37.9261C50.0135 33.8471 50.0089 26.054 48.6601 22.5354Z" fill="#8C6B50"/>
<path d="M37.1331 36.3418C30.0384 36.3418 24.2666 42.1137 24.2666 49.2083V49.2372C24.2666 49.642 24.5947 49.9702 24.9996 49.9702H49.2666C49.6715 49.9702 49.9996 49.642 49.9996 49.2372V49.2083C49.9996 42.1137 44.2277 36.3418 37.1331 36.3418Z" fill="#FD7DAD"/>
<path d="M37.1335 36.3418C36.5559 36.3418 35.9874 36.3807 35.4297 36.4548C41.7218 37.291 46.5924 42.6912 46.5924 49.2083V49.2372C46.5924 49.642 46.2643 49.9702 45.8594 49.9702H49.2669C49.6718 49.9702 49.9999 49.642 49.9999 49.2372V49.2083C50 42.1137 44.2281 36.3418 37.1335 36.3418Z" fill="#FC63A1"/>
<path d="M33.4279 4.42682C33.0186 1.43443 30.9104 0.203292 29.074 0.0489712C27.4378 -0.0889301 25.9094 0.525908 24.9998 1.59178C24.0903 0.525811 22.5613 -0.0888323 20.9256 0.0489712C19.0892 0.203292 16.9811 1.43443 16.5717 4.42682C15.7305 10.5758 24.3135 14.8241 24.6793 15.0019C24.7804 15.0511 24.8901 15.0757 24.9998 15.0757C25.1094 15.0757 25.2191 15.0512 25.3202 15.0019C25.6861 14.8241 34.2691 10.5757 33.4279 4.42682Z" fill="#FF3D43"/>
<path d="M33.4284 4.42665C33.0191 1.43426 30.9109 0.203116 29.0745 0.0487951C28.3082 -0.0158064 27.5666 0.0865201 26.9002 0.321079C28.3447 0.840823 29.6879 2.10207 30.0059 4.42665C30.6494 9.13044 25.7781 12.7219 23.2891 14.2299C24.0538 14.6932 24.5938 14.9599 24.6798 15.0017C24.781 15.0509 24.8906 15.0755 25.0003 15.0755C25.1099 15.0755 25.2196 15.051 25.3207 15.0017C25.6865 14.8239 34.2695 10.5755 33.4284 4.42665Z" fill="#D72E2E"/>
<path d="M21.2371 26.6237C17.6086 25.9998 15.0975 22.3175 15.073 22.2811C14.9224 22.0555 14.6605 21.9295 14.3907 21.9568C14.1208 21.9842 13.8891 22.156 13.7867 22.4072C13.7823 22.4176 13.327 23.4681 11.9906 24.502C10.2056 25.8831 7.65716 26.613 4.62069 26.613C4.21578 26.613 3.8877 26.9412 3.8877 27.346V28.8289C3.8877 33.7801 7.91576 37.808 12.8668 37.808C17.8179 37.808 21.8459 33.7801 21.8459 28.8289V27.346C21.8458 26.9891 21.5888 26.6841 21.2371 26.6237Z" fill="#FFC89F"/>
<path d="M21.2371 26.6233C20.2026 26.4455 19.2595 26.0187 18.4384 25.499V28.8287C18.4384 33.1971 15.3027 36.8465 11.1641 37.6452C11.7156 37.7515 12.2847 37.8078 12.8669 37.8078C17.8179 37.8078 21.846 33.7798 21.846 28.8287V27.3458C21.8459 26.9888 21.5888 26.6837 21.2371 26.6233Z" fill="#F7B081"/>
<path d="M40.3722 36.7533C38.2665 36.2072 36.0013 36.2072 33.8957 36.7533C33.5391 36.8457 33.3065 37.1887 33.3525 37.5543C33.5914 39.4544 35.2172 40.8873 37.1339 40.8873C39.0507 40.8873 40.6765 39.4544 40.9154 37.5543C40.9616 37.1887 40.7289 36.8457 40.3722 36.7533Z" fill="#A75F2A"/>
<path d="M45.5038 26.6237C41.8753 25.9998 39.3642 22.3175 39.3397 22.2811C39.1891 22.0555 38.9267 21.9295 38.6574 21.9568C38.3875 21.9842 38.1558 22.156 38.0534 22.4072C38.049 22.4176 37.5937 23.4681 36.2573 24.502C34.4723 25.8831 31.9238 26.613 28.8873 26.613C28.4824 26.613 28.1543 26.9412 28.1543 27.346V28.8289C28.1543 33.7801 32.1824 37.808 37.1335 37.808C42.0846 37.808 46.1126 33.7801 46.1126 28.8289V27.346C46.1126 26.9891 45.8555 26.6841 45.5038 26.6237Z" fill="#A75F2A"/>
<path d="M45.5037 26.6233C44.4693 26.4455 43.5262 26.0188 42.705 25.499V28.8286C42.705 33.197 39.5693 36.8464 35.4307 37.6451C35.9822 37.7514 36.5514 37.8077 37.1335 37.8077C42.0845 37.8077 46.1126 33.7797 46.1126 28.8286V27.3457C46.1125 26.9888 45.8555 26.6837 45.5037 26.6233Z" fill="#9C511F"/>
<path d="M33.7254 31.4911C33.0701 31.4911 32.5371 30.958 32.5371 30.3027C32.5371 29.6474 33.0701 29.1143 33.7254 29.1143C34.3807 29.1143 34.9139 29.6474 34.9139 30.3027C34.9139 30.9581 34.3807 31.4911 33.7254 31.4911Z" fill="#464649"/>
<path d="M40.541 31.4911C39.8857 31.4911 39.3525 30.958 39.3525 30.3027C39.3525 29.6474 39.8857 29.1143 40.541 29.1143C41.1963 29.1143 41.7293 29.6474 41.7293 30.3027C41.7294 30.9581 41.1964 31.4911 40.541 31.4911Z" fill="#464649"/>
<path d="M9.45884 31.4911C8.80354 31.4911 8.27051 30.958 8.27051 30.3027C8.27051 29.6474 8.80354 29.1143 9.45884 29.1143C10.1141 29.1143 10.6473 29.6474 10.6473 30.3027C10.6473 30.9581 10.1141 31.4911 9.45884 31.4911Z" fill="#464649"/>
<path d="M16.2744 31.4911C15.6191 31.4911 15.0859 30.958 15.0859 30.3027C15.0859 29.6474 15.6191 29.1143 16.2744 29.1143C16.9297 29.1143 17.4627 29.6474 17.4627 30.3027C17.4627 30.9581 16.9297 31.4911 16.2744 31.4911Z" fill="#464649"/>
</g>
<defs>
<clipPath id="clip0_497_384">
<rect width="50" height="50" fill="white"/>
</clipPath>
</defs>
</svg>
